#N canvas 0 50 1916 997 10;
#X text 8 7 PD Workshop;
#X text 8 25 Bastien Gliech;
#X text 11 60 Let's get a bit more complicated. I am going to build
a sequencer.;
#X obj 33 199 tgl 15 0 empty empty empty 17 7 0 10 -262144 -1 -1 0
1;
#X obj 1088 119 f;
#X obj 1123 119 + 1;
#X obj 1088 151 % 8;
#N canvas 0 50 450 250 (subpatch) 0;
#X array sample2 3967 float 0;
#X coords 0 1 3966 -1 200 140 1 0 0;
#X restore 435 197 graph;
#N canvas 0 50 450 250 (subpatch) 0;
#X array sample1 27722 float 0;
#X coords 0 1 27721 -1 200 140 1 0 0;
#X restore 435 27 graph;
#N canvas 0 50 450 250 (subpatch) 0;
#X array sample3 15182 float 0;
#X coords 0 1 15181 -1 200 140 1 0 0;
#X restore 435 368 graph;
#N canvas 0 50 450 250 (subpatch) 0;
#X array sample4 100 float 1;
#A 0 0 0 0 0 0 0 0 0 0 0 0 0 0 0 0 0 0 0 0 0 0 0 0 0 0 0 0 0 0 0 0
0 0 0 0 0 0 0 0 0 0 0 0 0 0 0 0 0 0 0 0 0 0 0 0 0 0 0 0 0 0 0 0 0 0
0 0 0 0 0 0 0 0 0 0 0 0 0 0 0 0 0 0 0 0 0 0 0 0 0 0 0 0 0 0 0 0 0 0
0;
#X coords 0 1 100 -1 200 140 1 0 0;
#X restore 435 536 graph;
#X obj 659 155 soundfiler;
#X floatatom 659 176 10 0 0 0 - - -, f 10;
#X obj 659 195 t b;
#X msg 659 235 \; sample1 normalize;
#X msg 930 493 0 1;
#X obj 972 492 del 10;
#X obj 929 560 dac~;
#X obj 930 513 line~;
#X obj 930 534 tabread4~ sample1;
#X obj 744 382 tgl 30 0 empty empty empty 17 7 0 10 -262144 -1 -1 1
1;
#X obj 782 382 tgl 30 0 empty empty empty 17 7 0 10 -262144 -1 -1 0
1;
#X obj 819 382 tgl 30 0 empty empty empty 17 7 0 10 -262144 -1 -1 1
1;
#X obj 857 382 tgl 30 0 empty empty empty 17 7 0 10 -262144 -1 -1 0
1;
#X obj 895 382 tgl 30 0 empty empty empty 17 7 0 10 -262144 -1 -1 1
1;
#X obj 933 382 tgl 30 0 empty empty empty 17 7 0 10 -262144 -1 -1 0
1;
#X obj 970 382 tgl 30 0 empty empty empty 17 7 0 10 -262144 -1 -1 0
1;
#X obj 1008 382 tgl 30 0 empty empty empty 17 7 0 10 -262144 -1 -1
0 1;
#X msg 724 125 read -resize ./kick.wav sample3;
#X text 1057 513 88.2 kHz;
#X msg 972 512 27722 314;
#X obj 1088 168 + 1;
#X obj 1046 405 route 1 2 3 4 5 6 7 8;
#X floatatom 1077 191 5 0 0 0 - - -, f 5;
#X floatatom 1121 191 5 0 0 0 - - -, f 5;
#X obj 1085 214 pack;
#X obj 743 421 *;
#X obj 743 436 == 8;
#X obj 743 451 sel 1;
#X obj 743 466 t b;
#X obj 782 421 *;
#X obj 782 451 sel 1;
#X obj 782 466 t b;
#X obj 820 421 *;
#X obj 820 451 sel 1;
#X obj 820 466 t b;
#X obj 857 421 *;
#X obj 857 451 sel 1;
#X obj 857 466 t b;
#X obj 895 421 *;
#X obj 895 451 sel 1;
#X obj 895 466 t b;
#X obj 933 421 *;
#X obj 933 451 sel 1;
#X obj 933 466 t b;
#X obj 971 421 *;
#X obj 971 451 sel 1;
#X obj 971 466 t b;
#X obj 1008 421 *;
#X obj 1008 451 sel 1;
#X obj 1008 466 t b;
#X obj 782 436 == 1;
#X obj 820 436 == 2;
#X obj 857 436 == 3;
#X obj 895 436 == 4;
#X obj 933 436 == 5;
#X obj 971 436 == 6;
#X obj 1008 436 == 7;
#X msg 922 698 0 1;
#X obj 964 697 del 10;
#X obj 921 765 dac~;
#X obj 922 718 line~;
#X obj 736 587 tgl 30 0 empty empty empty 17 7 0 10 -262144 -1 -1 1
1;
#X obj 774 587 tgl 30 0 empty empty empty 17 7 0 10 -262144 -1 -1 0
1;
#X obj 811 587 tgl 30 0 empty empty empty 17 7 0 10 -262144 -1 -1 1
1;
#X obj 849 587 tgl 30 0 empty empty empty 17 7 0 10 -262144 -1 -1 1
1;
#X obj 887 587 tgl 30 0 empty empty empty 17 7 0 10 -262144 -1 -1 0
1;
#X obj 925 587 tgl 30 0 empty empty empty 17 7 0 10 -262144 -1 -1 1
1;
#X obj 962 587 tgl 30 0 empty empty empty 17 7 0 10 -262144 -1 -1 0
1;
#X obj 1000 587 tgl 30 0 empty empty empty 17 7 0 10 -262144 -1 -1
1 1;
#X text 1049 718 88.2 kHz;
#X obj 1038 610 route 1 2 3 4 5 6 7 8;
#X obj 735 626 *;
#X obj 735 641 == 8;
#X obj 735 656 sel 1;
#X obj 735 671 t b;
#X obj 774 626 *;
#X obj 774 656 sel 1;
#X obj 774 671 t b;
#X obj 812 626 *;
#X obj 812 656 sel 1;
#X obj 812 671 t b;
#X obj 849 626 *;
#X obj 849 656 sel 1;
#X obj 849 671 t b;
#X obj 887 626 *;
#X obj 887 656 sel 1;
#X obj 887 671 t b;
#X obj 925 626 *;
#X obj 925 656 sel 1;
#X obj 925 671 t b;
#X obj 963 626 *;
#X obj 963 656 sel 1;
#X obj 963 671 t b;
#X obj 1000 626 *;
#X obj 1000 656 sel 1;
#X obj 1000 671 t b;
#X obj 774 641 == 1;
#X obj 812 641 == 2;
#X obj 849 641 == 3;
#X obj 887 641 == 4;
#X obj 925 641 == 5;
#X obj 963 641 == 6;
#X obj 1000 641 == 7;
#X msg 920 909 0 1;
#X obj 962 908 del 10;
#X obj 919 976 dac~;
#X obj 920 929 line~;
#X obj 734 798 tgl 30 0 empty empty empty 17 7 0 10 -262144 -1 -1 1
1;
#X obj 772 798 tgl 30 0 empty empty empty 17 7 0 10 -262144 -1 -1 0
1;
#X obj 809 798 tgl 30 0 empty empty empty 17 7 0 10 -262144 -1 -1 0
1;
#X obj 847 798 tgl 30 0 empty empty empty 17 7 0 10 -262144 -1 -1 1
1;
#X obj 885 798 tgl 30 0 empty empty empty 17 7 0 10 -262144 -1 -1 1
1;
#X obj 923 798 tgl 30 0 empty empty empty 17 7 0 10 -262144 -1 -1 0
1;
#X obj 960 798 tgl 30 0 empty empty empty 17 7 0 10 -262144 -1 -1 0
1;
#X obj 998 798 tgl 30 0 empty empty empty 17 7 0 10 -262144 -1 -1 1
1;
#X text 688 806 kick;
#X text 1047 929 88.2 kHz;
#X obj 1036 821 route 1 2 3 4 5 6 7 8;
#X obj 733 837 *;
#X obj 733 852 == 8;
#X obj 733 867 sel 1;
#X obj 733 882 t b;
#X obj 772 837 *;
#X obj 772 867 sel 1;
#X obj 772 882 t b;
#X obj 810 837 *;
#X obj 810 867 sel 1;
#X obj 810 882 t b;
#X obj 847 837 *;
#X obj 847 867 sel 1;
#X obj 847 882 t b;
#X obj 885 837 *;
#X obj 885 867 sel 1;
#X obj 885 882 t b;
#X obj 923 837 *;
#X obj 923 867 sel 1;
#X obj 923 882 t b;
#X obj 961 837 *;
#X obj 961 867 sel 1;
#X obj 961 882 t b;
#X obj 998 837 *;
#X obj 998 867 sel 1;
#X obj 998 882 t b;
#X obj 772 852 == 1;
#X obj 810 852 == 2;
#X obj 847 852 == 3;
#X obj 885 852 == 4;
#X obj 923 852 == 5;
#X obj 961 852 == 6;
#X obj 998 852 == 7;
#X text 698 390 clap;
#X text 690 595 hat;
#X obj 922 739 tabread4~ sample2;
#X msg 964 717 9530 120;
#X msg 962 928 15181 191;
#X obj 920 950 tabread4~ sample3;
#X obj 659 36 loadbang;
#X text 1167 94 sequencer;
#X msg 659 87 read -resize ./clap.wav sample1;
#X text 732 36 bangs on load \, fills in all files in dis;
#X text 698 197 Take some time \, I put delays to ensure it works;
#X obj 708 67 del 200;
#X obj 788 67 del 200;
#X obj 659 216 del 100;
#X obj 1088 91 metro 250;
#X floatatom 16 137 15 0 0 0 - - bpm, f 15;
#X msg 694 106 read -resize ./hat2.wav sample2;
#X text 14 156 BPM;
#X obj 1144 39 r bpm;
#X obj 1144 64 expr 1000 / ($f1 * 2 / 60);
#X text 23 173 turn on this toggle;
#X msg 16 111 120;
#X connect 3 0 175 0;
#X connect 4 0 5 0;
#X connect 4 0 6 0;
#X connect 5 0 4 1;
#X connect 6 0 31 0;
#X connect 11 0 12 0;
#X connect 12 0 13 0;
#X connect 13 0 174 0;
#X connect 15 0 18 0;
#X connect 16 0 30 0;
#X connect 18 0 19 0;
#X connect 19 0 17 0;
#X connect 19 0 17 1;
#X connect 20 0 36 1;
#X connect 21 0 40 1;
#X connect 22 0 43 1;
#X connect 23 0 46 1;
#X connect 24 0 49 1;
#X connect 25 0 52 1;
#X connect 26 0 55 1;
#X connect 27 0 58 1;
#X connect 28 0 11 0;
#X connect 30 0 18 0;
#X connect 31 0 33 0;
#X connect 31 0 34 0;
#X connect 32 0 36 0;
#X connect 32 1 40 0;
#X connect 32 2 43 0;
#X connect 32 3 46 0;
#X connect 32 4 49 0;
#X connect 32 5 52 0;
#X connect 32 6 55 0;
#X connect 32 7 58 0;
#X connect 33 0 35 0;
#X connect 34 0 35 1;
#X connect 35 0 32 0;
#X connect 35 0 81 0;
#X connect 35 0 128 0;
#X connect 36 0 37 0;
#X connect 37 0 38 0;
#X connect 38 0 39 0;
#X connect 39 0 15 0;
#X connect 39 0 16 0;
#X connect 40 0 61 0;
#X connect 41 0 42 0;
#X connect 42 0 15 0;
#X connect 42 0 16 0;
#X connect 43 0 62 0;
#X connect 44 0 45 0;
#X connect 45 0 15 0;
#X connect 45 0 16 0;
#X connect 46 0 63 0;
#X connect 47 0 48 0;
#X connect 48 0 15 0;
#X connect 48 0 16 0;
#X connect 49 0 64 0;
#X connect 50 0 51 0;
#X connect 51 0 15 0;
#X connect 51 0 16 0;
#X connect 52 0 65 0;
#X connect 53 0 54 0;
#X connect 54 0 16 0;
#X connect 54 0 15 0;
#X connect 55 0 66 0;
#X connect 56 0 57 0;
#X connect 57 0 16 0;
#X connect 57 0 15 0;
#X connect 58 0 67 0;
#X connect 59 0 60 0;
#X connect 60 0 16 0;
#X connect 60 0 15 0;
#X connect 61 0 41 0;
#X connect 62 0 44 0;
#X connect 63 0 47 0;
#X connect 64 0 50 0;
#X connect 65 0 53 0;
#X connect 66 0 56 0;
#X connect 67 0 59 0;
#X connect 68 0 71 0;
#X connect 69 0 164 0;
#X connect 71 0 163 0;
#X connect 72 0 82 1;
#X connect 73 0 86 1;
#X connect 74 0 89 1;
#X connect 75 0 92 1;
#X connect 76 0 95 1;
#X connect 77 0 98 1;
#X connect 78 0 101 1;
#X connect 79 0 104 1;
#X connect 81 0 82 0;
#X connect 81 1 86 0;
#X connect 81 2 89 0;
#X connect 81 3 92 0;
#X connect 81 4 95 0;
#X connect 81 5 98 0;
#X connect 81 6 101 0;
#X connect 81 7 104 0;
#X connect 82 0 83 0;
#X connect 83 0 84 0;
#X connect 84 0 85 0;
#X connect 85 0 68 0;
#X connect 85 0 69 0;
#X connect 86 0 107 0;
#X connect 87 0 88 0;
#X connect 88 0 68 0;
#X connect 88 0 69 0;
#X connect 89 0 108 0;
#X connect 90 0 91 0;
#X connect 91 0 68 0;
#X connect 91 0 69 0;
#X connect 92 0 109 0;
#X connect 93 0 94 0;
#X connect 94 0 68 0;
#X connect 94 0 69 0;
#X connect 95 0 110 0;
#X connect 96 0 97 0;
#X connect 97 0 68 0;
#X connect 97 0 69 0;
#X connect 98 0 111 0;
#X connect 99 0 100 0;
#X connect 100 0 69 0;
#X connect 100 0 68 0;
#X connect 101 0 112 0;
#X connect 102 0 103 0;
#X connect 103 0 69 0;
#X connect 103 0 68 0;
#X connect 104 0 113 0;
#X connect 105 0 106 0;
#X connect 106 0 69 0;
#X connect 106 0 68 0;
#X connect 107 0 87 0;
#X connect 108 0 90 0;
#X connect 109 0 93 0;
#X connect 110 0 96 0;
#X connect 111 0 99 0;
#X connect 112 0 102 0;
#X connect 113 0 105 0;
#X connect 114 0 117 0;
#X connect 115 0 165 0;
#X connect 117 0 166 0;
#X connect 118 0 129 1;
#X connect 119 0 133 1;
#X connect 120 0 136 1;
#X connect 121 0 139 1;
#X connect 122 0 142 1;
#X connect 123 0 145 1;
#X connect 124 0 148 1;
#X connect 125 0 151 1;
#X connect 128 0 129 0;
#X connect 128 1 133 0;
#X connect 128 2 136 0;
#X connect 128 3 139 0;
#X connect 128 4 142 0;
#X connect 128 5 145 0;
#X connect 128 6 148 0;
#X connect 128 7 151 0;
#X connect 129 0 130 0;
#X connect 130 0 131 0;
#X connect 131 0 132 0;
#X connect 132 0 114 0;
#X connect 132 0 115 0;
#X connect 133 0 154 0;
#X connect 134 0 135 0;
#X connect 135 0 114 0;
#X connect 135 0 115 0;
#X connect 136 0 155 0;
#X connect 137 0 138 0;
#X connect 138 0 114 0;
#X connect 138 0 115 0;
#X connect 139 0 156 0;
#X connect 140 0 141 0;
#X connect 141 0 114 0;
#X connect 141 0 115 0;
#X connect 142 0 157 0;
#X connect 143 0 144 0;
#X connect 144 0 114 0;
#X connect 144 0 115 0;
#X connect 145 0 158 0;
#X connect 146 0 147 0;
#X connect 147 0 115 0;
#X connect 147 0 114 0;
#X connect 148 0 159 0;
#X connect 149 0 150 0;
#X connect 150 0 115 0;
#X connect 150 0 114 0;
#X connect 151 0 160 0;
#X connect 152 0 153 0;
#X connect 153 0 115 0;
#X connect 153 0 114 0;
#X connect 154 0 134 0;
#X connect 155 0 137 0;
#X connect 156 0 140 0;
#X connect 157 0 143 0;
#X connect 158 0 146 0;
#X connect 159 0 149 0;
#X connect 160 0 152 0;
#X connect 163 0 70 0;
#X connect 163 0 70 1;
#X connect 164 0 71 0;
#X connect 165 0 117 0;
#X connect 166 0 116 0;
#X connect 166 0 116 1;
#X connect 167 0 169 0;
#X connect 167 0 172 0;
#X connect 167 0 173 0;
#X connect 169 0 11 0;
#X connect 172 0 177 0;
#X connect 173 0 28 0;
#X connect 174 0 14 0;
#X connect 175 0 4 0;
#X connect 177 0 11 0;
#X connect 179 0 180 0;
#X connect 180 0 175 1;
#X connect 182 0 176 0;
