#N canvas 482 23 757 743 10;
#X text 134 60 Comments = cmnd-5;
#X text 135 84 Objects = cmnd-1;
#X obj 191 115 osc~ 440;
#X text 221 146 Don't forget that we toggle between edit mode (cmnd-E)
and run mode (also cmnd-E);
#X text 221 186 Look for the hand or the cursor;
#X text 141 235 We could hook up the [dac~] at this point \, but let's
do a bit more first.;
#X text 142 286 Number box = cmnd-3;
#X floatatom 142 319 5 0 0 0 - - -, f 5;
#X obj 142 345 osc~ 440;
#X text 160 372 Dynamically update creation argument in run mode;
#X obj 143 413 dac~;
#X text 139 451 Message = cmnd-2;
#X text 166 477 Or build a C major scale using MIDI notes!;
#X msg 279 520 60;
#X msg 312 520 62;
#X msg 345 520 64;
#X msg 378 520 65;
#X msg 410 520 67;
#X msg 443 520 69;
#X msg 475 520 71;
#X msg 508 520 72;
#X obj 279 591 osc~;
#X text 316 593 Note that all go to the left inlet;
#X obj 279 649 *~ 0;
#X text 314 651 multiplier;
#X msg 300 624 0.8;
#X msg 335 624 0;
#X obj 279 683 dac~;
#X text 321 681 Volume is between 0 and 1;
#X text 323 700 Multiply any number by 0 = 0 \, or MUTE;
#X obj 279 564 mtof;
#X text 315 567 Tranlate MIDI #s to frequency (Hz);
#X text 12 6 Advanced Computer Music Composition;
#X text 12 24 class 1 - volume;
#X connect 7 0 8 0;
#X connect 8 0 10 0;
#X connect 8 0 10 1;
#X connect 13 0 30 0;
#X connect 14 0 30 0;
#X connect 15 0 30 0;
#X connect 16 0 30 0;
#X connect 17 0 30 0;
#X connect 18 0 30 0;
#X connect 19 0 30 0;
#X connect 20 0 30 0;
#X connect 21 0 23 0;
#X connect 23 0 27 0;
#X connect 23 0 27 1;
#X connect 25 0 23 1;
#X connect 26 0 23 1;
#X connect 30 0 21 0;
