#N canvas 523 35 600 706 10;
#X text 22 11 Advanced Computer Music Composition;
#X text 21 73 Pure Data is a graphical programming software that assists
with creating powerful electronic and computer music.;
#X text 56 118 It consists of a number of elements \, namely:;
#X text 82 145 1 Objects (cmnd-1);
#X text 82 163 2 Messages (cmnd-2);
#X text 82 180 3 Numbers (cmnd-3);
#X text 82 198 4 Symbols (cmnd-4);
#X text 82 214 5 Comments (cmnd-5);
#X text 27 274 For example:;
#X obj 53 500 osc~;
#X floatatom 53 449 5 0 0 0 - - -, f 5;
#X text 88 500 sine wave oscillator (no harmonics!);
#X msg 53 366 60;
#X msg 83 366 62;
#X msg 115 366 64;
#X msg 145 366 66;
#X msg 177 366 68;
#X msg 207 366 70;
#X msg 237 366 72;
#X text 32 328 These messages represent MIDI #s corresponding to a
whole tone scale from C4-C5;
#X obj 53 411 mtof;
#X text 87 411 [mtof] object translates to frequency (Hz);
#X text 89 448 number box displays corresponding freq.;
#X obj 86 580 *~;
#X text 114 580 multiplier (for amplitude);
#X msg 101 553 0;
#X msg 134 553 0.8;
#X obj 86 616 dac~;
#X text 124 618 digital-to-analog converter;
#X text 171 553 keep amplitude between 0 and 1!;
#X text 172 246 **Toggle between run mode and edit mode using comnd-e**
;
#X text 21 29 class 2 - review;
#X connect 9 0 23 0;
#X connect 10 0 9 0;
#X connect 12 0 20 0;
#X connect 13 0 20 0;
#X connect 14 0 20 0;
#X connect 15 0 20 0;
#X connect 16 0 20 0;
#X connect 17 0 20 0;
#X connect 18 0 20 0;
#X connect 20 0 10 0;
#X connect 23 0 27 0;
#X connect 23 0 27 1;
#X connect 25 0 23 1;
#X connect 26 0 23 1;
