#N canvas 562 23 673 720 10;
#X text 68 65 The "control" element of Pd is critical. Note how much
of today's code will have thinner patch cables and won't have the "~"
modifier when creating objects \, which denotes audio signals.;
#X floatatom 74 157 5 0 0 0 - - -, f 5;
#X floatatom 125 157 5 0 0 0 - - -, f 5;
#X text 175 157 Two number boxes;
#X obj 74 199 +;
#X floatatom 74 232 5 0 0 0 - - -, f 5;
#X text 108 199 basic addition of two numbers;
#X text 113 231 sum;
#X text 73 273 Note that we only garner a sum once the LEFT inlet has
received a value or some sort of shift. Pd ONLY outputs data once something
has happened to the LEFTMOST inlet (often referred to as "hot").;
#X text 77 350 More math you say?;
#X floatatom 80 386 5 0 0 0 - - -, f 5;
#X floatatom 119 386 5 0 0 0 - - -, f 5;
#X obj 80 418 -;
#X floatatom 80 447 5 0 0 0 - - -, f 5;
#X floatatom 163 386 5 0 0 0 - - -, f 5;
#X floatatom 202 386 5 0 0 0 - - -, f 5;
#X floatatom 163 447 5 0 0 0 - - -, f 5;
#X floatatom 241 387 5 0 0 0 - - -, f 5;
#X floatatom 280 387 5 0 0 0 - - -, f 5;
#X floatatom 241 448 5 0 0 0 - - -, f 5;
#X floatatom 324 387 5 0 0 0 - - -, f 5;
#X floatatom 363 387 5 0 0 0 - - -, f 5;
#X floatatom 324 448 5 0 0 0 - - -, f 5;
#X obj 163 418 *;
#X obj 241 419 /;
#X obj 324 419 pow;
#X text 383 424 **Hint.. type cmnd-D to duplicate...**;
#X text 88 518 Shift-cmnd-B creates a "blinky" bang;
#X obj 93 577 bng 15 250 50 0 empty empty empty 17 7 0 10 -262144 -1
-1;
#X msg 93 607 12;
#X msg 133 607 2;
#X obj 93 637 *;
#X floatatom 93 664 5 0 0 0 - - -, f 5;
#X text 136 665 Nothing happens!!;
#X msg 221 557 bang;
#X text 257 558 <-- same thing;
#X obj 440 551 bng 15 250 50 0 empty empty empty 17 7 0 10 -262144
-1 -1;
#X msg 440 624 12;
#X msg 480 624 2;
#X obj 440 654 *;
#X floatatom 440 681 5 0 0 0 - - -, f 5;
#X obj 440 575 trigger bang bang;
#X obj 561 574 t b b;
#X text 483 682 Something happens!!;
#X text 125 534 (Just called a bang. I call it "blinky.");
#X text 17 6 Advanced Computer Music Composition;
#X text 16 24 class 2 - basic math;
#X connect 1 0 4 0;
#X connect 2 0 4 1;
#X connect 4 0 5 0;
#X connect 10 0 12 0;
#X connect 11 0 12 1;
#X connect 12 0 13 0;
#X connect 14 0 23 0;
#X connect 15 0 23 1;
#X connect 17 0 24 0;
#X connect 18 0 24 1;
#X connect 20 0 25 0;
#X connect 21 0 25 1;
#X connect 23 0 16 0;
#X connect 24 0 19 0;
#X connect 25 0 22 0;
#X connect 28 0 29 0;
#X connect 28 0 30 0;
#X connect 29 0 31 0;
#X connect 30 0 31 1;
#X connect 31 0 32 0;
#X connect 36 0 41 0;
#X connect 37 0 39 0;
#X connect 38 0 39 1;
#X connect 39 0 40 0;
#X connect 41 0 37 0;
#X connect 41 1 38 0;
