#N canvas 449 93 778 685 10;
#X text 95 93 The expression object is INCREDIBLY powerful;
#X obj 122 150 expr 2 + 2;
#X msg 122 124 bang;
#X floatatom 122 176 5 0 0 0 - - -, f 5;
#X obj 384 123 bng 15 250 50 0 empty empty empty 17 7 0 10 -262144
-1 -1;
#X obj 384 146 t b b;
#X text 434 148 short for "trigger bang bang";
#X msg 384 173 2;
#X msg 419 173 2;
#X obj 384 200 +;
#X floatatom 384 228 5 0 0 0 - - -, f 5;
#X text 99 260 See how much we can do with so little code?;
#X text 231 177 Identical outcomes;
#X text 100 301 We can dynamically update using "variables.";
#X floatatom 139 332 5 0 0 0 - - -, f 5;
#X obj 103 359 expr $f1 + 2;
#X floatatom 103 386 5 0 0 0 - - -, f 5;
#X msg 103 332 2;
#X text 189 360 dollar sign denotes variables \, in order;
#X obj 243 453 expr $f1 + $f2 + 2;
#X floatatom 243 404 5 0 0 0 - - -, f 5;
#X floatatom 348 403 5 0 0 0 - - -, f 5;
#X floatatom 243 484 5 0 0 0 - - -, f 5;
#X obj 348 424 t b f;
#X text 387 424 "cheap" way to bang leftmost "hot" inlet;
#X obj 397 451 trigger bang float;
#X text 476 472 "float" sends out a number;
#X floatatom 302 613 5 0 0 0 - - -, f 5;
#X floatatom 302 563 5 0 0 0 - - -, f 5;
#X obj 302 590 expr 440*(pow(2 \, (($f1-69)/12)));
#X text 339 563 MIDI;
#X text 337 614 frequency;
#X text 199 528 Remember the [mtof] object?;
#X text 505 590 equation for MIDI conversion;
#X obj 377 527 mtof;
#X text 27 15 Advanced Computer Music Composition;
#X text 26 33 class 2 - expressions;
#X connect 1 0 3 0;
#X connect 2 0 1 0;
#X connect 4 0 5 0;
#X connect 5 0 7 0;
#X connect 5 1 8 0;
#X connect 7 0 9 0;
#X connect 8 0 9 1;
#X connect 9 0 10 0;
#X connect 14 0 15 0;
#X connect 15 0 16 0;
#X connect 17 0 15 0;
#X connect 19 0 22 0;
#X connect 20 0 19 0;
#X connect 21 0 23 0;
#X connect 23 0 19 0;
#X connect 23 1 19 1;
#X connect 28 0 29 0;
#X connect 29 0 27 0;
