#N canvas 274 23 765 698 10;
#X text 26 14 Advanced Computer Music;
#X floatatom 226 174 5 0 0 0 - - -, f 5;
#X floatatom 226 232 5 0 0 0 - - -, f 5;
#X obj 226 255 * 100;
#X text 274 256 normalize to a new range;
#X floatatom 226 284 5 0 0 0 - - -, f 5;
#X obj 226 308 + 0.5;
#X obj 226 333 int;
#X text 254 334 truncate decimal (integers only);
#X floatatom 226 359 5 0 0 0 - - -, f 5;
#X floatatom 226 406 5 0 0 0 - - -, f 5;
#X text 466 381 or;
#X obj 495 380 mtof;
#X obj 226 381 expr 440 * (pow(2 \, (($f1 - 69) / 12)));
#X obj 226 457 osc~;
#X obj 226 547 *~;
#X obj 325 433 * 3;
#X obj 325 459 osc~;
#X obj 325 545 *~;
#X msg 242 522 0;
#X msg 340 520 0;
#X msg 273 522 0.7;
#X msg 372 520 0.7;
#X obj 226 586 dac~;
#X text 273 231 between 0 and 1 \, "reflect" over 1;
#X text 25 78 Control objects assist us with creating unique \, exciting
ways to manipulate data \, which we'll use to control parameters for
our compositions.;
#X text 272 309 add 0.5 (for rounding purposes);
#X text 264 173 click and scroll (freely between 0-100) in the number
box;
#X obj 226 202 / 100;
#X text 530 380 works \, too...;
#X text 26 31 class 3 - review;
#X connect 1 0 28 0;
#X connect 2 0 3 0;
#X connect 3 0 5 0;
#X connect 5 0 6 0;
#X connect 6 0 7 0;
#X connect 7 0 9 0;
#X connect 9 0 13 0;
#X connect 10 0 14 0;
#X connect 10 0 16 0;
#X connect 13 0 10 0;
#X connect 14 0 15 0;
#X connect 15 0 23 0;
#X connect 16 0 17 0;
#X connect 17 0 18 0;
#X connect 18 0 23 1;
#X connect 19 0 15 1;
#X connect 20 0 18 1;
#X connect 21 0 15 1;
#X connect 22 0 18 1;
#X connect 28 0 2 0;
