#N canvas 122 23 936 754 10;
#X text 21 15 Advanced Computer Music Composition;
#X msg 51 103 0 \, 100 1000;
#X obj 51 164 line;
#X floatatom 51 190 5 0 0 0 - - -, f 5;
#X msg 80 130 0 1000;
#X text 136 128 or \, just target \, time;
#X text 55 232 this is particularly useful for attenuating volume;
#X text 49 76 the line object provides a ramp time between values.
;
#X obj 58 271 phasor~ 220;
#X obj 58 374 *~;
#X obj 79 351 line~;
#X obj 58 408 dac~;
#X msg 79 321 0 1000;
#X msg 129 320 0.75 1000;
#X text 135 104 it takes messages: start \, target \, time (ms);
#X text 203 321 staty between 0-1 for volume!;
#X text 429 319 gui objects help us customize the look of our patch
;
#X obj 584 343 vsl 15 128 0 127 0 0 empty empty empty 0 -9 0 10 -262144
-1 -1 0 1;
#X obj 503 634 *~;
#X obj 503 668 dac~;
#X text 613 352 V-slider value between 0-127;
#X obj 584 483 / 127;
#X text 622 484 constrain range to 0-1;
#X obj 503 531 osc~ 220;
#X obj 584 514 t f b;
#X msg 611 540 50;
#X obj 584 564 pack;
#X obj 584 591 line~;
#X text 621 565 pack values together into one list;
#X text 633 591 basically \, we've created;
#X msg 793 591 $f1 50;
#X text 570 636 slight ramp time removes "clicks" and "zipper noise"
when changing values for volume;
#X text 21 35 class 4 - review;
#X connect 1 0 2 0;
#X connect 2 0 3 0;
#X connect 4 0 2 0;
#X connect 8 0 9 0;
#X connect 9 0 11 0;
#X connect 9 0 11 1;
#X connect 10 0 9 1;
#X connect 12 0 10 0;
#X connect 13 0 10 0;
#X connect 17 0 21 0;
#X connect 18 0 19 0;
#X connect 18 0 19 1;
#X connect 21 0 24 0;
#X connect 23 0 18 0;
#X connect 24 0 26 0;
#X connect 24 1 25 0;
#X connect 25 0 26 1;
#X connect 26 0 27 0;
#X connect 27 0 18 1;
