#N canvas 161 98 714 634 10;
#X text 12 15 Advanced Computer Music Composition;
#X obj 106 258 mtof;
#X floatatom 106 161 5 0 0 0 - - -, f 5;
#X obj 106 190 clip 30 127;
#X text 184 191 New object! [clip] keeps #s within given range;
#X obj 317 256 mtof;
#X obj 106 293 t f b;
#X obj 106 343 pack;
#X obj 106 374 line~;
#X obj 106 399 osc~;
#X obj 317 294 t f b;
#X obj 316 344 pack;
#X obj 316 375 line~;
#X obj 316 398 osc~;
#X text 358 346 Basically \, add some glissando;
#X text 376 436 Adjust amplitude (between 0 and 1);
#X obj 234 547 dac~;
#X msg 134 316 1000;
#X text 146 160 freely adjust frequency;
#X obj 174 257 mtof;
#X obj 174 292 t f b;
#X obj 174 342 pack;
#X obj 174 373 line~;
#X obj 174 398 osc~;
#X obj 174 233 + 2;
#X obj 252 257 mtof;
#X obj 252 292 t f b;
#X obj 252 342 pack;
#X obj 252 373 line~;
#X obj 252 398 osc~;
#X obj 252 233 + 4;
#X obj 317 233 + 7;
#X obj 106 439 *~ 0.5;
#X obj 174 438 *~ 0.5;
#X obj 252 438 *~ 0.5;
#X obj 316 438 *~ 0.5;
#X msg 202 315 1250;
#X msg 280 315 1500;
#X msg 344 317 1750;
#X text 107 64 The line object affords us the ability to have "ramp"
times for events \, such as adjusting volume. Here we'll sort of replicate
the oscillator delays from Oliveros' Bye Bye Butterfly.;
#X text 12 34 class 5 - review;
#X connect 1 0 6 0;
#X connect 2 0 3 0;
#X connect 3 0 1 0;
#X connect 3 0 24 0;
#X connect 3 0 31 0;
#X connect 3 0 30 0;
#X connect 5 0 10 0;
#X connect 6 0 7 0;
#X connect 6 1 17 0;
#X connect 7 0 8 0;
#X connect 8 0 9 0;
#X connect 9 0 32 0;
#X connect 10 0 11 0;
#X connect 10 1 38 0;
#X connect 11 0 12 0;
#X connect 12 0 13 0;
#X connect 13 0 35 0;
#X connect 17 0 7 1;
#X connect 19 0 20 0;
#X connect 20 0 21 0;
#X connect 20 1 36 0;
#X connect 21 0 22 0;
#X connect 22 0 23 0;
#X connect 23 0 33 0;
#X connect 24 0 19 0;
#X connect 25 0 26 0;
#X connect 26 0 27 0;
#X connect 26 1 37 0;
#X connect 27 0 28 0;
#X connect 28 0 29 0;
#X connect 29 0 34 0;
#X connect 30 0 25 0;
#X connect 31 0 5 0;
#X connect 32 0 16 0;
#X connect 33 0 16 1;
#X connect 34 0 16 0;
#X connect 35 0 16 1;
#X connect 36 0 21 1;
#X connect 37 0 27 1;
#X connect 38 0 11 1;
