#N canvas 399 63 850 689 10;
#X text 258 196 Let's explore some randomness in our work.;
#X obj 183 84 tgl 15 0 empty empty empty 17 7 0 10 -262144 -1 -1 0
1;
#X obj 210 116 expr 1000 / ($f1 / 60);
#X text 353 117 convert bpm to milliseconds;
#X msg 300 84 92;
#X msg 330 84 100;
#X msg 360 84 112;
#X msg 389 84 120;
#X floatatom 210 165 5 0 0 0 - - -, f 5;
#X obj 183 185 metro;
#X obj 182 215 random 127;
#X floatatom 182 247 5 0 0 0 - - -, f 5;
#X text 257 216 choose random # between 0 and argument;
#X msg 210 84 60;
#X msg 239 84 72;
#X msg 270 84 84;
#X text 423 84 quarter-note = ?;
#X obj 279 269 pipe 500;
#X floatatom 279 298 5 0 0 0 - - -, f 5;
#X text 338 269 delay data stream by 1/2 second;
#X obj 182 272 mtof;
#X obj 279 321 mtof;
#X obj 235 457 *~;
#X text 32 457 multiply these signals together;
#X obj 337 630 dac~;
#X floatatom 370 358 5 0 0 0 - - -, f 5;
#X text 527 375 delay data stream by 1/2 second;
#X obj 371 404 t f b;
#X msg 398 430 250;
#X obj 371 452 pack;
#X obj 371 482 line~;
#X text 506 443 square wave oscillator;
#X obj 371 378 mtof;
#X obj 468 443 mtof;
#X obj 424 600 *~;
#X obj 370 334 + 12;
#X obj 468 375 pipe 1000;
#X obj 468 465 t f b;
#X msg 497 489 100;
#X obj 469 538 line~;
#X obj 469 512 pack;
#X obj 370 311 pipe 750;
#X obj 337 595 *~;
#X obj 468 420 abs;
#X obj 210 142 / 4;
#X obj 468 398 + 24;
#X obj 279 347 phasor~;
#X text 126 348 sawtooth wave oscillator;
#X obj 60 544 sig~;
#X text 93 544 converts numbers to raw signal;
#X text 58 569 non-periodic \, so be careful!;
#X obj 371 515 osc~;
#X obj 469 564 osc~;
#X obj 182 409 osc~;
#X text 35 5 Advanced Computer Music Composition;
#X text 463 604 You can multiply (or add or subtract or divide any
signal \, just be careful with your amplitudes);
#X obj 464 642 +~;
#X obj 492 642 -~;
#X obj 520 642 *~;
#X obj 547 642 /~;
#X text 35 23 class 5 - implementation;
#X connect 1 0 9 0;
#X connect 2 0 44 0;
#X connect 4 0 2 0;
#X connect 5 0 2 0;
#X connect 6 0 2 0;
#X connect 7 0 2 0;
#X connect 8 0 9 1;
#X connect 9 0 10 0;
#X connect 10 0 11 0;
#X connect 11 0 17 0;
#X connect 11 0 20 0;
#X connect 11 0 41 0;
#X connect 13 0 2 0;
#X connect 14 0 2 0;
#X connect 15 0 2 0;
#X connect 17 0 18 0;
#X connect 18 0 21 0;
#X connect 20 0 53 0;
#X connect 21 0 46 0;
#X connect 22 0 42 0;
#X connect 25 0 32 0;
#X connect 25 0 36 0;
#X connect 27 0 29 0;
#X connect 27 1 28 0;
#X connect 28 0 29 1;
#X connect 29 0 30 0;
#X connect 30 0 51 0;
#X connect 32 0 27 0;
#X connect 33 0 37 0;
#X connect 34 0 42 1;
#X connect 34 0 24 1;
#X connect 35 0 25 0;
#X connect 36 0 45 0;
#X connect 37 0 40 0;
#X connect 37 1 38 0;
#X connect 38 0 40 1;
#X connect 39 0 52 0;
#X connect 40 0 39 0;
#X connect 41 0 35 0;
#X connect 42 0 24 0;
#X connect 43 0 33 0;
#X connect 44 0 8 0;
#X connect 45 0 43 0;
#X connect 46 0 22 1;
#X connect 51 0 34 0;
#X connect 52 0 34 1;
#X connect 53 0 22 0;
