#N canvas 173 51 1031 688 10;
#X obj 517 358 - 1;
#X obj 517 380 abs;
#X floatatom 517 410 5 0 0 0 - - -, f 5;
#X floatatom 596 410 5 0 0 0 - - -, f 5;
#X obj 599 236 hsl 128 15 0 127 0 0 empty empty empty -2 -8 0 10 -262144
-1 -1 0 1;
#X obj 596 264 / 127;
#X obj 517 439 t f b;
#X msg 544 462 10;
#X obj 517 491 pack;
#X obj 517 517 line~;
#X obj 596 439 t f b;
#X msg 623 462 10;
#X obj 596 491 pack;
#X obj 596 517 line~;
#X obj 502 571 *~;
#X obj 581 571 *~;
#X obj 43 426 send~ somesound;
#X obj 394 518 receive~ somesound;
#X obj 43 264 noise~;
#X obj 43 390 *~;
#X msg 58 357 0;
#X msg 91 357 1;
#X obj 119 291 metro 125;
#X obj 119 263 tgl 15 0 empty empty empty 17 7 0 10 -262144 -1 -1 0
1;
#X obj 540 610 dac~;
#X text 29 18 Advanced Computer Music Composition;
#X text 32 97 Stereo spatialization is a huge component of the composition
process and we can explore it in detail using Pd. Unlike panning in
a DAW \, we can create panning motion either determinantly or indeterminantly
\, which is way more fun.;
#X text 82 180 It's always easier to perceive panning across the stereo
field using a sound with a noisy spectrum \, and so some white noise
(44 \, 100 random frequencies being sampled/sec) will be our BFF.;
#X text 596 207 H-slider;
#X text 638 264 in range of 0-1;
#X text 631 319 A linear pan maintains a linear relationship from 0-1
\, thus 0.5 is in the middle \, 0 is L \, and 1 is R.;
#X text 281 359 Tracking distance from 0 \, essentially;
#X text 409 382 Always positive*;
#X text 658 463 Add a tiny bit of ramp time to smooth things out;
#X obj 58 331 del 10;
#X obj 192 291 random 125;
#X obj 192 313 * 2;
#X text 268 291 Create some noise "pulses" with irregular rhythms;
#X text 28 40 class 7 - linear pan;
#X connect 0 0 1 0;
#X connect 1 0 2 0;
#X connect 2 0 6 0;
#X connect 3 0 10 0;
#X connect 4 0 5 0;
#X connect 5 0 0 0;
#X connect 5 0 3 0;
#X connect 6 0 8 0;
#X connect 6 1 7 0;
#X connect 7 0 8 1;
#X connect 8 0 9 0;
#X connect 9 0 14 1;
#X connect 10 0 12 0;
#X connect 10 1 11 0;
#X connect 11 0 12 1;
#X connect 12 0 13 0;
#X connect 13 0 15 1;
#X connect 14 0 24 0;
#X connect 15 0 24 1;
#X connect 17 0 14 0;
#X connect 17 0 15 0;
#X connect 18 0 19 0;
#X connect 19 0 16 0;
#X connect 20 0 19 1;
#X connect 21 0 19 1;
#X connect 22 0 21 0;
#X connect 22 0 34 0;
#X connect 22 0 35 0;
#X connect 23 0 22 0;
#X connect 34 0 20 0;
#X connect 35 0 36 0;
#X connect 36 0 22 1;
