#N canvas 222 23 926 755 10;
#X text 23 17 Advanced Computer Music Composition;
#X obj 93 199 noise~;
#X obj 159 306 *~;
#X msg 178 283 1;
#X msg 210 283 0;
#X text 250 340 ...and linearally pan them L --> R;
#X text 44 87 We can generate small bursts of sound using [noise~]..
;
#X obj 210 258 del 10;
#X obj 178 214 metro;
#X obj 178 181 tgl 15 0 empty empty empty 17 7 0 10 -262144 -1 -1 0
1;
#X msg 209 121 92;
#X obj 209 143 expr 60000 / $f1;
#X floatatom 209 168 5 0 0 0 - - -, f 5;
#X msg 239 121 120;
#X text 273 120 beats per minute;
#X text 318 145 convert to ms;
#X obj 209 190 / 4;
#X text 236 191 division of beat (1 = qtr. \, 2 = eighth \, 4 = sixteenth)
;
#X obj 302 369 hsl 128 15 0 127 0 0 empty empty empty -2 -8 0 10 -262144
-1 -1 0 1;
#X obj 299 392 / 127;
#X obj 207 416 - 1;
#X obj 207 438 abs;
#X floatatom 207 461 5 0 0 0 - - -, f 5;
#X floatatom 439 454 5 0 0 0 - - -, f 5;
#X text 474 454 R;
#X text 183 461 L;
#X obj 207 496 t f b;
#X msg 232 518 50;
#X obj 207 546 pack;
#X obj 439 489 t f b;
#X msg 466 513 50;
#X obj 439 539 pack;
#X obj 207 571 line~;
#X obj 439 564 line~;
#X obj 159 330 send~ bursts;
#X obj 192 603 *~;
#X obj 424 596 *~;
#X obj 298 682 dac~;
#X obj 310 547 receive~ bursts;
#X text 424 392 There are any of a number of things we can do to generate
novel pan values...;
#X obj 652 673 writesf~ 2;
#X text 556 699 ...and record them to disk;
#X obj 192 666 s~ burstL;
#X obj 424 663 s~ burstR;
#X obj 652 485 receive~ burstL;
#X obj 709 508 receive~ burstR;
#X msg 727 533 bang;
#X obj 727 556 savepanel;
#X msg 727 578 open \$1;
#X text 765 532 create file;
#X msg 732 629 start;
#X msg 776 629 stop;
#X text 23 35 class 8 - review;
#X connect 1 0 2 0;
#X connect 2 0 34 0;
#X connect 3 0 2 1;
#X connect 4 0 2 1;
#X connect 7 0 4 0;
#X connect 8 0 3 0;
#X connect 8 0 7 0;
#X connect 9 0 8 0;
#X connect 10 0 11 0;
#X connect 11 0 12 0;
#X connect 12 0 16 0;
#X connect 13 0 11 0;
#X connect 16 0 8 1;
#X connect 18 0 19 0;
#X connect 19 0 20 0;
#X connect 19 0 23 0;
#X connect 20 0 21 0;
#X connect 21 0 22 0;
#X connect 22 0 26 0;
#X connect 23 0 29 0;
#X connect 26 0 28 0;
#X connect 26 1 27 0;
#X connect 27 0 28 1;
#X connect 28 0 32 0;
#X connect 29 0 31 0;
#X connect 29 1 30 0;
#X connect 30 0 31 1;
#X connect 31 0 33 0;
#X connect 32 0 35 1;
#X connect 33 0 36 1;
#X connect 35 0 37 0;
#X connect 35 0 42 0;
#X connect 36 0 37 1;
#X connect 36 0 43 0;
#X connect 38 0 35 0;
#X connect 38 0 36 0;
#X connect 44 0 40 0;
#X connect 45 0 40 1;
#X connect 46 0 47 0;
#X connect 47 0 48 0;
#X connect 48 0 40 0;
#X connect 50 0 40 0;
#X connect 51 0 40 0;
