#N canvas 214 81 1038 682 10;
#X obj 574 124 hsl 128 15 0 127 0 0 empty empty empty -2 -8 0 10 -262144
-1 -1 4600 1;
#X obj 494 231 / 4;
#X obj 571 233 - 1;
#X obj 571 258 * -0.25;
#X obj 494 375 t f b;
#X msg 521 398 10;
#X obj 494 427 pack;
#X obj 494 453 line~;
#X obj 571 375 t f b;
#X msg 598 398 10;
#X obj 571 427 pack;
#X obj 571 453 line~;
#X obj 392 577 *~;
#X obj 470 576 *~;
#X obj 571 479 cos~;
#X obj 494 480 cos~;
#X obj 630 602 snapshot~;
#X obj 657 557 metro 50;
#X obj 657 527 tgl 15 0 empty empty empty 17 7 0 10 -262144 -1 -1 1
1;
#X obj 549 601 snapshot~;
#X floatatom 549 629 5 0 0 0 - - -, f 5;
#X floatatom 630 629 5 0 0 0 - - -, f 5;
#X obj 571 152 / 127;
#X obj 352 463 receive~ somesound;
#X obj 425 627 dac~;
#X obj 75 386 send~ somesound;
#X obj 75 224 noise~;
#X obj 75 350 *~;
#X msg 90 317 0;
#X msg 123 317 1;
#X obj 90 291 del 74;
#X obj 151 251 metro 125;
#X obj 151 223 tgl 15 0 empty empty empty 17 7 0 10 -262144 -1 -1 1
1;
#X text 171 290 Create some noise "pulses";
#X text 23 11 Advanced Computer Music Composition;
#X text 23 31 class 8 - constant power pan;
#X text 23 78 Constant power panning uses a cosine function to maintain
a more robust signal across the stereo field. Think of it this way
\, a linear pan contains a straight \, linear line moving from 0 to
1 for each channel \, while a constant power pan has a curved line
\, which ensures that more signal is being sent to the speakers while
moving from 0 to 1;
#X text 545 649 L channel;
#X text 629 650 R channel;
#X text 605 481 cosine function;
#X text 632 400 ramp time to smooth signal;
#X floatatom 571 172 5 0 0 0 - - -, f 5;
#X floatatom 494 348 5 0 0 0 - - -, f 5;
#X floatatom 571 347 5 0 0 0 - - -, f 5;
#X text 614 345 range of 0 - 0.25;
#X text 669 628 outgoing amplitudes;
#X connect 0 0 22 0;
#X connect 1 0 42 0;
#X connect 2 0 3 0;
#X connect 3 0 43 0;
#X connect 4 0 6 0;
#X connect 4 1 5 0;
#X connect 5 0 6 1;
#X connect 6 0 7 0;
#X connect 7 0 15 0;
#X connect 8 0 10 0;
#X connect 8 1 9 0;
#X connect 9 0 10 1;
#X connect 10 0 11 0;
#X connect 11 0 14 0;
#X connect 12 0 24 0;
#X connect 13 0 24 1;
#X connect 14 0 13 1;
#X connect 14 0 16 0;
#X connect 15 0 12 1;
#X connect 15 0 19 0;
#X connect 16 0 21 0;
#X connect 17 0 16 0;
#X connect 17 0 19 0;
#X connect 18 0 17 0;
#X connect 19 0 20 0;
#X connect 22 0 41 0;
#X connect 23 0 12 0;
#X connect 23 0 13 0;
#X connect 26 0 27 0;
#X connect 27 0 25 0;
#X connect 28 0 27 1;
#X connect 29 0 27 1;
#X connect 30 0 28 0;
#X connect 31 0 30 0;
#X connect 31 0 29 0;
#X connect 32 0 31 0;
#X connect 41 0 1 0;
#X connect 41 0 2 0;
#X connect 42 0 4 0;
#X connect 43 0 8 0;
