#N canvas 285 46 880 668 10;
#X obj 96 407 *~;
#X msg 149 384 0;
#X obj 149 359 del 10;
#X obj 115 315 metro;
#X obj 115 282 tgl 15 0 empty empty empty 17 7 0 10 -262144 -1 -1 0
1;
#X msg 146 222 92;
#X obj 146 244 expr 60000 / $f1;
#X floatatom 146 269 5 0 0 0 - - -, f 5;
#X msg 176 222 120;
#X obj 146 291 / 4;
#X obj 538 185 hsl 128 15 0 127 0 0 empty empty empty -2 -8 0 10 -262144
-1 -1 0 1;
#X obj 535 208 / 127;
#X obj 443 232 - 1;
#X obj 443 254 abs;
#X floatatom 443 277 5 0 0 0 - - -, f 5;
#X floatatom 675 270 5 0 0 0 - - -, f 5;
#X text 710 270 R;
#X text 419 277 L;
#X obj 443 312 t f b;
#X msg 468 334 50;
#X obj 443 362 pack;
#X obj 675 305 t f b;
#X msg 702 329 50;
#X obj 675 355 pack;
#X obj 443 387 line~;
#X obj 675 380 line~;
#X obj 428 419 *~;
#X obj 660 412 *~;
#X text 18 10 Advanced Computer Music Composition;
#X text 25 58 Subtractive synthesis filters out bands of frequency
that constitute complex sounds. In essence \, we're sort of "undoing"
the process of additive synthesis using digital filters.;
#X obj 89 132 lop~;
#X obj 197 132 hip~;
#X text 167 151 high pass;
#X text 263 153 band pass;
#X obj 299 132 bp~;
#X text 64 152 low pass;
#X floatatom 459 447 5 0 0 0 - - -, f 5;
#X text 494 445 center frequency;
#X floatatom 491 468 5 0 0 0 - - -, f 5;
#X text 529 467 Q;
#X floatatom 690 445 5 0 0 0 - - -, f 5;
#X text 725 443 center frequency;
#X floatatom 722 466 5 0 0 0 - - -, f 5;
#X text 754 471 Q;
#X obj 564 550 dac~;
#X floatatom 208 222 5 0 0 0 - - -, f 5;
#X text 190 574 Try to create a clave and bass drum sound using only
white noise and band pass filters...;
#X obj 32 305 phasor~;
#X msg 115 384 0.75;
#X msg 32 252 60;
#X obj 32 277 mtof;
#X obj 17 376 noise~;
#X obj 428 488 bp~ 174 73;
#X obj 659 486 bp~ 200 75;
#X obj 428 510 *~ 5;
#X obj 660 508 *~ 5;
#X text 266 512 boost signal if needed;
#X text 295 533 don't boost for noise!!;
#X text 409 115 Let's try to recreate some of Laurie Spiegel's textures
using the bandpass filters and sawtooth wave generators available to
her at the time.;
#X obj 146 185 loadbang;
#X text 543 467 keep above 0!!;
#X text 20 29 class 9 - filters;
#X connect 0 0 26 0;
#X connect 0 0 27 0;
#X connect 1 0 0 1;
#X connect 2 0 1 0;
#X connect 3 0 48 0;
#X connect 3 0 2 0;
#X connect 4 0 3 0;
#X connect 5 0 6 0;
#X connect 6 0 7 0;
#X connect 7 0 9 0;
#X connect 8 0 6 0;
#X connect 9 0 3 1;
#X connect 10 0 11 0;
#X connect 11 0 12 0;
#X connect 11 0 15 0;
#X connect 12 0 13 0;
#X connect 13 0 14 0;
#X connect 14 0 18 0;
#X connect 15 0 21 0;
#X connect 18 0 20 0;
#X connect 18 1 19 0;
#X connect 19 0 20 1;
#X connect 20 0 24 0;
#X connect 21 0 23 0;
#X connect 21 1 22 0;
#X connect 22 0 23 1;
#X connect 23 0 25 0;
#X connect 24 0 26 1;
#X connect 25 0 27 1;
#X connect 26 0 52 0;
#X connect 27 0 53 0;
#X connect 36 0 52 1;
#X connect 38 0 52 2;
#X connect 40 0 53 1;
#X connect 42 0 53 2;
#X connect 45 0 6 0;
#X connect 47 0 0 0;
#X connect 48 0 0 1;
#X connect 49 0 50 0;
#X connect 50 0 47 0;
#X connect 52 0 54 0;
#X connect 53 0 55 0;
#X connect 54 0 44 0;
#X connect 55 0 44 1;
#X connect 59 0 49 0;
#X connect 59 0 5 0;
