#N canvas 333 23 744 755 10;
#X obj 332 726 dac~;
#X obj 49 362 *~;
#X text 252 245 low frequency oscillator (< 20 Hz) for pulse;
#X obj 49 222 +~;
#X floatatom 195 223 5 0 0 0 - - -, f 5;
#X obj 195 293 clip~ 0 1;
#X floatatom 262 539 5 0 0 0 - - -, f 5;
#X obj 262 515 line;
#X obj 262 391 f;
#X obj 289 391 + 1;
#X obj 262 416 mod 2;
#X floatatom 262 438 5 0 0 0 - - -, f 5;
#X obj 262 460 sel 0 1;
#X text 301 539 listen for all of the harmonics!;
#X obj 49 173 phasor~ 80;
#X obj 64 196 phasor~ 160;
#X floatatom 291 565 5 0 0 0 - - -, f 5;
#X msg 262 486 80 15000;
#X msg 331 486 2400 15000;
#X obj 262 367 metro 15000;
#X obj 234 590 bp~ 200 40;
#X obj 195 270 *~ 100;
#X text 237 269 clipping will "sharpen" pulse;
#X obj 195 245 osc~ 4.5;
#X text 25 16 Advanced Computer Music Composition;
#X obj 27 72 lop~;
#X obj 58 72 hip~;
#X obj 89 72 bp~;
#X text 119 73 all do subtractive synthesis (filtering of signals)
;
#X text 354 367 Slowly count for 15 seconds;
#X text 302 415 choose between 0 and 1;
#X text 408 487 two center frequencies \, match time to [metro];
#X text 329 563 change Q if you'd like to;
#X text 28 117 Let's create a few sawtooth waves (rich in harmonic
content) that we can regularly "pulse" before sending to a sweepable
bandpass filter.;
#X text 74 223 add together;
#X obj 332 694 *~;
#X msg 376 669 0.75;
#X msg 347 669 0;
#X obj 502 132 tgl 15 0 empty empty empty 17 7 0 10 -262144 -1 -1 0
1;
#X obj 502 153 s onoff;
#X obj 262 340 r onoff;
#X obj 347 643 sel 0 1;
#X obj 347 620 r onoff;
#X text 551 129 Global on/off switch;
#X text 260 293 clip wave between 0 and 1 for actual pulse "wave" creation
;
#X text 24 33 class 9 - filters 2;
#X connect 1 0 20 0;
#X connect 3 0 1 0;
#X connect 4 0 23 0;
#X connect 5 0 1 1;
#X connect 6 0 20 1;
#X connect 7 0 6 0;
#X connect 8 0 9 0;
#X connect 8 0 10 0;
#X connect 9 0 8 1;
#X connect 10 0 11 0;
#X connect 11 0 12 0;
#X connect 12 0 17 0;
#X connect 12 1 18 0;
#X connect 14 0 3 0;
#X connect 15 0 3 1;
#X connect 16 0 20 2;
#X connect 17 0 7 0;
#X connect 18 0 7 0;
#X connect 19 0 8 0;
#X connect 20 0 35 0;
#X connect 21 0 5 0;
#X connect 23 0 21 0;
#X connect 35 0 0 0;
#X connect 35 0 0 1;
#X connect 36 0 35 1;
#X connect 37 0 35 1;
#X connect 38 0 39 0;
#X connect 40 0 19 0;
#X connect 41 0 37 0;
#X connect 41 1 36 0;
#X connect 42 0 41 0;
