#N canvas 351 37 791 688 10;
#X text 32 12 Advanced Computer Music Composition;
#X text 34 65 We can read soundfiles into Pd using Arrays and the [openpanel]/[soundfiler]
objects;
#X msg 39 114 bang;
#X obj 39 138 openpanel;
#X msg 39 160 read -resize \$1 sampler;
#X obj 39 182 soundfiler;
#X floatatom 39 204 10 0 0 0 - - -, f 10;
#N canvas 0 22 450 278 (subpatch) 0;
#X array sampler 132701 float 0;
#X coords 0 1 132700 -1 200 140 1;
#X restore 442 53 graph;
#X text 191 161 match last arg. to name of array;
#X msg 380 217 \; sampler normalize;
#X text 500 225 normalize sounds;
#X text 106 204 total number of samples in audio file;
#X text 530 31 **don't forget to save contents!**;
#X obj 39 261 / 44.1;
#X floatatom 39 294 10 0 0 0 - - -, f 10;
#X text 114 294 duration in ms;
#X obj 218 585 tabread4~ sampler;
#X obj 218 561 line~;
#X obj 218 617 dac~;
#X text 267 363 forward;
#X text 284 391 backward;
#X obj 217 469 metro 500;
#X obj 217 449 tgl 15 0 empty empty empty 17 7 0 10 -262144 -1 -1 0
1;
#X text 295 494 many other possibilities for manipulating playback...
;
#X text 30 29 class 12 - review;
#X msg 171 362 0 \, 132701 3009;
#X msg 190 392 132701 \, 0 3009;
#X msg 217 522 132701 \, 0 \$1;
#X obj 217 495 random 3009;
#X connect 2 0 3 0;
#X connect 3 0 4 0;
#X connect 4 0 5 0;
#X connect 5 0 6 0;
#X connect 6 0 13 0;
#X connect 13 0 14 0;
#X connect 16 0 18 0;
#X connect 16 0 18 1;
#X connect 17 0 16 0;
#X connect 21 0 28 0;
#X connect 22 0 21 0;
#X connect 25 0 17 0;
#X connect 26 0 17 0;
#X connect 27 0 17 0;
#X connect 28 0 27 0;
#X connect 28 0 21 1;
