#N canvas 206 102 810 606 10;
#X text 19 12 Advanced Computer Music Composition;
#X text 333 64 The graph-on-parent function gives us even more customization
for our patches. Access it by right-clicking on your canvas and selecting
graph-on-parent.;
#X text 406 116 While you don't have control over where this red box
appears \, know that the default height (in pixels) for toggles \,
numbers boxes \, etc. is 17;
#X obj 188 449 writesf~ 2;
#X obj 188 101 bng 15 250 50 0 empty empty empty 17 7 0 10 -262144
-1 -1;
#X obj 188 297 savepanel;
#X msg 188 318 open \$1;
#X text 438 174 Here's a nice way to make an object that's easy to
install anywhere to record your Pd sessions.;
#X msg 246 391 start;
#X obj 246 369 sel 1 0;
#X msg 288 391 stop;
#X obj 204 101 tgl 15 0 empty empty empty 17 7 0 10 -262144 -1 -1 0
1;
#X obj 23 97 inlet~;
#X text 250 298 choose file with bang;
#X text 297 368 start/stop with toggle;
#X text 18 32 class 16 - abstractions \, cont'd;
#X connect 4 0 5 0;
#X connect 5 0 6 0;
#X connect 6 0 3 0;
#X connect 8 0 3 0;
#X connect 9 0 8 0;
#X connect 9 1 10 0;
#X connect 10 0 3 0;
#X connect 11 0 9 0;
#X connect 12 0 3 0;
#X connect 12 0 3 1;
#X coords 0 -1 1 1 120 17 1 100 100;
