#N canvas 184 23 1051 755 10;
#X obj 455 681 dac~;
#X obj 455 491 +~;
#X obj 344 161 phasor~;
#X obj 507 347 osc~;
#X obj 344 90 random 1000;
#X obj 344 112 / 1000;
#X obj 455 561 lop~ 10000;
#X obj 455 583 lop~ 10000;
#X obj 455 605 hip~ 100;
#X obj 455 630 hip~ 100;
#X obj 507 380 *~;
#X obj 344 278 *~;
#X obj 436 215 +~ 100;
#X obj 436 189 random 9000;
#X obj 436 143 random 3;
#X obj 436 165 sel 0;
#X obj 601 242 sel 0;
#X obj 601 320 +~ 0.2;
#X obj 601 266 random 100;
#X obj 601 298 / 200;
#X obj 601 218 random 4;
#X obj 522 213 sel 0;
#X obj 522 238 random 800;
#X obj 522 264 +~ 20;
#X obj 522 191 random 4;
#X obj 344 137 *~ 0.6;
#X obj 455 653 *~ 0.06;
#X obj 708 64 metro;
#X obj 708 129 random 3;
#X obj 708 151 sel 0;
#X obj 708 172 random 2;
#X obj 708 193 + 1;
#X obj 708 241 /;
#X obj 708 214 t b f;
#X floatatom 781 36 5 0 0 0 - - -, f 5;
#X text 816 37 density of sounds;
#X obj 708 42 tgl 15 0 empty empty empty 17 7 0 10 -262144 -1 -1 0
1;
#X obj 455 513 cos~;
#X obj 455 538 *~;
#X floatatom 530 488 5 0 0 0 - - -, f 5;
#X obj 530 463 random 2;
#X text 568 488 random on/off for variation;
#X text 348 70 carrier;
#X text 441 126 carrier amp;
#X text 533 172 modulator;
#X text 618 199 index;
#X obj 507 287 *~;
#X text 576 376 modulated signal from carrier * modulator for more
complexity;
#X floatatom 708 269 5 0 0 0 - - -, f 5;
#X obj 765 109 s bangs;
#X obj 345 46 r bangs;
#X obj 530 442 r bangs;
#X obj 436 98 r bangs;
#X obj 522 152 r bangs;
#X obj 601 176 r bangs;
#X text 536 381 <----;
#X text 542 600 filter bank;
#X text 234 244 ---------------------------------------------;
#X text 229 525 ---------------------------------------------;
#X text 229 392 Frequency modulation core;
#X text 23 16 Advanced Computer Music Composition;
#X text 23 37 class 18 - R2D2;
#X text 22 86 Adapted from Andy Farnell's Designing Sound;
#X text 22 108 page 638 (R2D2 implementation);
#X connect 1 0 37 0;
#X connect 2 0 11 0;
#X connect 2 0 46 0;
#X connect 3 0 10 0;
#X connect 4 0 5 0;
#X connect 5 0 25 0;
#X connect 6 0 7 0;
#X connect 7 0 8 0;
#X connect 8 0 9 0;
#X connect 9 0 26 0;
#X connect 10 0 1 1;
#X connect 11 0 1 0;
#X connect 12 0 11 1;
#X connect 13 0 12 0;
#X connect 14 0 15 0;
#X connect 15 0 13 0;
#X connect 16 0 18 0;
#X connect 17 0 10 1;
#X connect 18 0 19 0;
#X connect 19 0 17 0;
#X connect 20 0 16 0;
#X connect 21 0 22 0;
#X connect 22 0 23 0;
#X connect 23 0 46 1;
#X connect 24 0 21 0;
#X connect 25 0 2 0;
#X connect 26 0 0 0;
#X connect 26 0 0 1;
#X connect 27 0 28 0;
#X connect 27 0 49 0;
#X connect 28 0 29 0;
#X connect 29 0 30 0;
#X connect 30 0 31 0;
#X connect 31 0 33 0;
#X connect 32 0 48 0;
#X connect 33 0 32 0;
#X connect 33 1 32 1;
#X connect 34 0 32 0;
#X connect 34 0 27 1;
#X connect 36 0 27 0;
#X connect 37 0 38 0;
#X connect 38 0 6 0;
#X connect 39 0 38 1;
#X connect 40 0 39 0;
#X connect 46 0 3 0;
#X connect 48 0 27 1;
#X connect 50 0 4 0;
#X connect 51 0 40 0;
#X connect 52 0 14 0;
#X connect 53 0 24 0;
#X connect 54 0 20 0;
