#N canvas 151 73 737 498 10;
#X floatatom 188 159 5 0 0 0 - - -, f 5;
#X obj 279 308 +~;
#X obj 312 282 *~;
#X floatatom 312 161 5 0 0 0 - - -, f 5;
#X obj 312 237 osc~;
#X text 205 175 1 Carrier (Hz);
#X text 324 177 2 Modulator (Hz);
#X floatatom 446 161 5 0 0 0 - - -, f 5;
#X text 456 177 3 Index (constant);
#X obj 279 340 osc~;
#X text 371 269 Modulator = rate of vibrato;
#X text 371 288 Index = depth of vibrato;
#X obj 188 121 inlet;
#X obj 312 122 inlet;
#X obj 446 124 inlet;
#X obj 279 368 outlet~;
#X connect 0 0 1 0;
#X connect 1 0 9 0;
#X connect 2 0 1 1;
#X connect 3 0 4 0;
#X connect 4 0 2 0;
#X connect 7 0 2 1;
#X connect 9 0 15 0;
#X connect 12 0 0 0;
#X connect 13 0 3 0;
#X connect 14 0 7 0;
