#N canvas 385 344 958 988 10;
#X obj 119 75 inlet;
#X text 21 8 Basic LFO object type;
#X text 23 43 @output: cosine oscillator between 0 and 1 \, inclusive
;
#X text 23 26 @params: inlet 1: LFO Rate in hz;
#X obj 25 155 f;
#X obj 67 177 + 1;
#X floatatom 25 178 5 0 0 0 - - -, f 5;
#X obj 25 203 mod 2;
#X obj 24 224 select 1;
#X obj 24 273 line;
#X obj 25 129 metro;
#X msg 67 244 6.283;
#X msg 24 246 0;
#X obj 24 300 expr cos($f1);
#X floatatom 132 146 5 0 0 0 - - -, f 5;
#X obj 25 75 cnv 15 85 40 empty empty LFO 10 20 1 20 -191407 -262144
0;
#X obj 87 88 tgl 15 0 empty empty empty 17 7 0 10 -262144 -262144 -1
0 1;
#X obj 24 326 outlet;
#X obj 119 98 expr 1000 / ($f1);
#X connect 0 0 18 0;
#X connect 4 0 5 0;
#X connect 4 0 6 0;
#X connect 5 0 4 1;
#X connect 6 0 7 0;
#X connect 7 0 8 0;
#X connect 8 0 12 0;
#X connect 8 1 11 0;
#X connect 9 0 13 0;
#X connect 10 0 4 0;
#X connect 10 0 14 0;
#X connect 11 0 9 0;
#X connect 12 0 9 0;
#X connect 13 0 17 0;
#X connect 14 0 9 1;
#X connect 16 0 10 0;
#X connect 18 0 10 1;
#X coords 0 -1 1 1 85 40 1 25 75;
